<svg width="20" height="20" viewBox="0 0 20 20" fill="none" xmlns="http://www.w3.org/2000/svg">
<path d="M9.33211 18.0526H2.89474C2.39222 18.0526 1.91029 17.853 1.55496 17.4977C1.19962 17.1423 1 16.6604 1 16.1579V4.78947C1 4.28696 1.19962 3.80502 1.55496 3.44969C1.91029 3.09436 2.39222 2.89474 2.89474 2.89474H14.2632C14.7657 2.89474 15.2476 3.09436 15.6029 3.44969C15.9583 3.80502 16.1579 4.28696 16.1579 4.78947V8.57895H1M15.2105 11.4211V15.2105H19M15.2105 11.4211C13.1177 11.4211 11.4211 13.1177 11.4211 15.2105C11.4211 17.3034 13.1177 19 15.2105 19C17.3034 19 19 17.3034 19 15.2105M15.2105 11.4211C17.3034 11.4211 19 13.1177 19 15.2105M12.3684 1V4.78947M4.78947 1V4.78947" stroke="#F3F3F3" stroke-width="2" stroke-linecap="round" stroke-linejoin="round"/>
</svg>
