<svg xmlns="http://www.w3.org/2000/svg" width="32" height="32" fill="none" viewBox="0 0 32 32">
  <path fill="#BE1E1E" d="M31.06 13.088H15.992v6.191H24.6c-.372 2.002-1.497 3.694-3.195 4.828-1.434.96-3.265 1.526-5.417 1.526-4.166 0-7.69-2.814-8.949-6.596a9.695 9.695 0 0 1-.5-3.04c0-1.054.183-2.08.5-3.039 1.264-3.777 4.787-6.591 8.954-6.591 2.347 0 4.453.809 6.113 2.393l4.587-4.59C23.92 1.583 20.304 0 15.993 0 9.74 0 4.332 3.586 1.7 8.814A15.985 15.985 0 0 0 0 16.002c0 2.585.617 5.024 1.701 7.184C4.333 28.414 9.741 32 15.992 32c4.32 0 7.94-1.434 10.584-3.878 3.024-2.785 4.77-6.887 4.77-11.761 0-1.134-.1-2.223-.287-3.273Z"/>
</svg>
