<svg xmlns="http://www.w3.org/2000/svg" width="282" height="82" fill="none" viewBox="0 0 282 82">
  <path fill="#950FFF" d="M94.032 31.98h-4.896a140.807 140.807 0 0 1-2.052-3.096 100.369 100.369 0 0 1-2.196-3.564 381.08 381.08 0 0 1-2.052-3.6 35.71 35.71 0 0 1-1.512-3.096 4.603 4.603 0 0 1 1.08-1.08c.48-.336 1.08-.504 1.8-.504.816 0 1.476.18 1.98.54.504.336.984.96 1.44 1.872.312.576.624 1.176.936 1.8.336.6.66 1.224.972 1.872.336.624.66 1.248.972 1.872.336.6.648 1.176.936 1.728h.18a101.864 101.864 0 0 0 2.736-5.904l1.404-3.204c.36-.192.768-.336 1.224-.432a6.3 6.3 0 0 1 1.296-.144c.744 0 1.368.192 1.872.576.504.384.756.96.756 1.728 0 .288-.108.708-.324 1.26-.216.552-.588 1.32-1.116 2.304-.528.96-1.236 2.184-2.124 3.672a229.12 229.12 0 0 1-3.312 5.4ZM88.848 30h5.4v8.964c-.24.072-.6.132-1.08.18a8.99 8.99 0 0 1-1.404.108c-1.08 0-1.836-.18-2.268-.54-.432-.384-.648-1.044-.648-1.98V30Zm30.509.36c0 1.872-.384 3.504-1.152 4.896a7.747 7.747 0 0 1-3.168 3.168c-1.368.744-2.976 1.116-4.824 1.116-1.824 0-3.432-.36-4.824-1.08a7.98 7.98 0 0 1-3.204-3.168c-.744-1.392-1.116-3.036-1.116-4.932 0-1.896.384-3.516 1.152-4.86a7.98 7.98 0 0 1 3.204-3.168c1.392-.768 2.988-1.152 4.788-1.152 1.824 0 3.42.384 4.788 1.152 1.368.744 2.436 1.812 3.204 3.204.768 1.368 1.152 2.976 1.152 4.824Zm-9.144-4.968c-1.128 0-2.028.432-2.7 1.296-.648.864-.972 2.088-.972 3.672 0 1.608.324 2.844.972 3.708.648.84 1.548 1.26 2.7 1.26 1.152 0 2.052-.432 2.7-1.296.648-.864.972-2.088.972-3.672 0-1.56-.324-2.772-.972-3.636-.648-.888-1.548-1.332-2.7-1.332Zm12.496 6.876v-2.592h5.328v2.556c0 1.104.276 1.896.828 2.376.576.48 1.38.72 2.412.72.648 0 1.188-.06 1.62-.18.432-.12.756-.24.972-.36v-5.112h5.364v5.76c0 .576-.12 1.068-.36 1.476-.216.408-.576.768-1.08 1.08-.768.48-1.716.852-2.844 1.116-1.104.288-2.34.432-3.708.432-1.704 0-3.204-.252-4.5-.756-1.272-.504-2.268-1.284-2.988-2.34-.696-1.08-1.044-2.472-1.044-4.176Zm16.524-.972h-5.364v-9.504c.24-.072.576-.144 1.008-.216.432-.072.9-.108 1.404-.108 1.032 0 1.776.18 2.232.54.48.336.72.996.72 1.98v7.308Zm-11.196 0h-5.328v-9.504c.216-.072.54-.144.972-.216.432-.072.9-.108 1.404-.108 1.032 0 1.776.18 2.232.54.48.336.72.996.72 1.98v7.308Zm20.672-4.932v4.5h-5.328v-5.148c0-.672.156-1.236.468-1.692.336-.48.792-.9 1.368-1.26.792-.48 1.74-.852 2.844-1.116a14.207 14.207 0 0 1 3.528-.432c2.448 0 3.672.816 3.672 2.448 0 .384-.06.744-.18 1.08a3.6 3.6 0 0 1-.36.864 7.124 7.124 0 0 0-.9-.108 7.928 7.928 0 0 0-1.116-.072c-.72 0-1.44.084-2.16.252-.72.168-1.332.396-1.836.684Zm-5.328 3.132 5.328.108v9.36a5.99 5.99 0 0 1-1.008.18c-.432.072-.9.108-1.404.108-1.008 0-1.752-.18-2.232-.54-.456-.36-.684-1.008-.684-1.944v-7.272Z"/>
  <path fill="#fff" d="M163.84 30.036h-5.436V20.1c0-.912.264-1.62.792-2.124.528-.528 1.236-.792 2.124-.792.504 0 .984.036 1.44.108.48.072.84.132 1.08.18v12.564Zm-2.592.828v-4.392h10.836c.144.24.276.552.396.936.12.36.18.756.18 1.188 0 .768-.18 1.344-.54 1.728-.336.36-.804.54-1.404.54h-9.468Zm.072-9.288v-4.392h11.988c.144.216.276.516.396.9s.18.792.18 1.224c0 .768-.18 1.344-.54 1.728-.336.36-.804.54-1.404.54h-10.62Zm-2.916 6.336h5.472v11.052c-.216.072-.564.132-1.044.18-.48.072-.972.108-1.476.108-1.08 0-1.848-.192-2.304-.576-.432-.384-.648-1.044-.648-1.98v-8.784Zm18.09-11.16c0-.816.276-1.5.828-2.052.576-.552 1.296-.828 2.16-.828.888 0 1.608.276 2.16.828.552.552.828 1.236.828 2.052 0 .792-.276 1.476-.828 2.052-.552.576-1.272.864-2.16.864-.864 0-1.584-.288-2.16-.864a2.865 2.865 0 0 1-.828-2.052Zm.324 12.744h5.328v9.468c-.216.072-.54.132-.972.18-.432.072-.9.108-1.404.108-1.032 0-1.788-.18-2.268-.54-.456-.36-.684-1.008-.684-1.944v-7.272Zm5.328 2.772h-5.328V21.936c.216-.072.54-.144.972-.216a9.23 9.23 0 0 1 1.44-.108c1.032 0 1.776.18 2.232.54.456.336.684.996.684 1.98v8.136Zm20.861-4.464v3.384h-5.364v-3.204c0-.888-.264-1.536-.792-1.944-.504-.432-1.176-.648-2.016-.648-.6 0-1.152.084-1.656.252-.504.144-.96.324-1.368.54v5.004h-5.328v-5.616c0-.6.12-1.092.36-1.476.264-.408.636-.768 1.116-1.08.768-.528 1.752-.96 2.952-1.296 1.2-.36 2.52-.54 3.96-.54 2.592 0 4.596.576 6.012 1.728 1.416 1.128 2.124 2.76 2.124 4.896Zm-16.524 1.728h5.328v9.432a5.99 5.99 0 0 1-1.008.18c-.432.072-.9.108-1.404.108-1.008 0-1.752-.18-2.232-.54-.456-.36-.684-1.008-.684-1.944v-7.236Zm11.16 0h5.364v9.432a5.99 5.99 0 0 1-1.008.18c-.432.072-.9.108-1.404.108-1.008 0-1.752-.18-2.232-.54-.48-.36-.72-1.008-.72-1.944v-7.236Zm16.639 6.048c.552 0 1.092-.048 1.62-.144.552-.12.948-.252 1.188-.396v-3.456l-3.024.288c-.816.048-1.464.216-1.944.504-.48.288-.72.72-.72 1.296 0 .576.228 1.044.684 1.404.456.336 1.188.504 2.196.504Zm-.216-14.4c2.496 0 4.488.528 5.976 1.584 1.488 1.032 2.232 2.64 2.232 4.824v8.172c0 .6-.156 1.092-.468 1.476-.312.36-.708.672-1.188.936-.72.432-1.62.768-2.7 1.008-1.056.264-2.268.396-3.636.396-2.448 0-4.404-.48-5.868-1.44-1.44-.96-2.16-2.388-2.16-4.284 0-1.632.504-2.88 1.512-3.744 1.008-.888 2.508-1.428 4.5-1.62l4.788-.504v-.432c0-.816-.324-1.404-.972-1.764-.624-.36-1.524-.54-2.7-.54-.912 0-1.812.108-2.7.324-.864.216-1.644.468-2.34.756-.288-.192-.54-.48-.756-.864a2.928 2.928 0 0 1-.288-1.26c0-1.008.552-1.74 1.656-2.196.696-.288 1.5-.492 2.412-.612a17.764 17.764 0 0 1 2.7-.216Zm28.843 6.624v3.384h-5.364v-3.204c0-.888-.264-1.536-.792-1.944-.504-.432-1.176-.648-2.016-.648-.6 0-1.152.084-1.656.252-.504.144-.96.324-1.368.54v5.004h-5.328v-5.616c0-.6.12-1.092.36-1.476.264-.408.636-.768 1.116-1.08.768-.528 1.752-.96 2.952-1.296 1.2-.36 2.52-.54 3.96-.54 2.592 0 4.596.576 6.012 1.728 1.416 1.128 2.124 2.76 2.124 4.896Zm-16.524 1.728h5.328v9.432a5.99 5.99 0 0 1-1.008.18c-.432.072-.9.108-1.404.108-1.008 0-1.752-.18-2.232-.54-.456-.36-.684-1.008-.684-1.944v-7.236Zm11.16 0h5.364v9.432a5.99 5.99 0 0 1-1.008.18c-.432.072-.9.108-1.404.108-1.008 0-1.752-.18-2.232-.54-.48-.36-.72-1.008-.72-1.944v-7.236Zm18.871-4.104c-1.296 0-2.412.432-3.348 1.296-.912.84-1.368 2.076-1.368 3.708 0 1.608.444 2.82 1.332 3.636.888.816 2.004 1.224 3.348 1.224.792 0 1.476-.096 2.052-.288a10.6 10.6 0 0 0 1.548-.684c.408.288.72.612.936.972.216.336.324.756.324 1.26 0 .888-.48 1.608-1.44 2.16s-2.292.828-3.996.828c-1.896 0-3.564-.336-5.004-1.008a7.601 7.601 0 0 1-3.348-3.096c-.792-1.368-1.188-3.036-1.188-5.004 0-2.088.432-3.804 1.296-5.148.864-1.368 2.004-2.388 3.42-3.06 1.44-.696 3-1.044 4.68-1.044 1.656 0 2.952.3 3.888.9.96.6 1.44 1.344 1.44 2.232 0 .432-.108.828-.324 1.188a4.24 4.24 0 0 1-.684.9 9.86 9.86 0 0 0-1.584-.648c-.576-.216-1.236-.324-1.98-.324Zm10.176 7.452-.216-3.6 8.928-1.404c-.048-.672-.336-1.296-.864-1.872-.528-.576-1.308-.864-2.34-.864-1.08 0-1.98.372-2.7 1.116-.72.72-1.104 1.752-1.152 3.096l.18 2.484c.216 1.32.78 2.268 1.692 2.844.912.552 1.992.828 3.24.828a9.164 9.164 0 0 0 2.844-.432c.888-.288 1.608-.588 2.16-.9.36.216.648.516.864.9.24.384.36.792.36 1.224 0 .72-.288 1.32-.864 1.8-.552.48-1.332.84-2.34 1.08-.984.24-2.112.36-3.384.36-1.848 0-3.516-.348-5.004-1.044a7.933 7.933 0 0 1-3.456-3.132c-.84-1.392-1.26-3.132-1.26-5.22 0-1.536.24-2.868.72-3.996.504-1.128 1.164-2.052 1.98-2.772a8.35 8.35 0 0 1 2.808-1.656c1.056-.36 2.148-.54 3.276-.54 1.656 0 3.096.336 4.32 1.008 1.248.648 2.22 1.536 2.916 2.664.696 1.128 1.044 2.436 1.044 3.924 0 .744-.204 1.308-.612 1.692-.408.384-.972.624-1.692.72l-11.448 1.692Z"/>
  <path fill="#ADADAD" d="M87.312 75a.606.606 0 0 1-.408-.144.606.606 0 0 1-.144-.408V60.336h-4.608a.606.606 0 0 1-.408-.144.606.606 0 0 1-.144-.408v-1.008c0-.176.048-.312.144-.408a.555.555 0 0 1 .408-.168H93.72c.176 0 .312.056.408.168a.508.508 0 0 1 .168.408v1.008c0 .16-.056.296-.168.408-.096.096-.232.144-.408.144h-4.584v14.112c0 .16-.056.296-.168.408-.096.096-.232.144-.408.144h-1.248Zm7.97 0a.606.606 0 0 1-.409-.144.606.606 0 0 1-.144-.408V63.096c0-.16.048-.296.144-.408a.555.555 0 0 1 .408-.168h1.104c.16 0 .296.056.408.168a.555.555 0 0 1 .168.408v1.056c.32-.544.76-.952 1.32-1.224s1.232-.408 2.016-.408h.96a.48.48 0 0 1 .384.168.519.519 0 0 1 .144.384v.984c0 .16-.048.288-.144.384a.519.519 0 0 1-.384.144h-1.44c-.864 0-1.544.256-2.04.768-.496.496-.744 1.176-.744 2.04v7.056c0 .16-.056.296-.168.408a.606.606 0 0 1-.408.144h-1.176Zm13.22.24c-1.024 0-1.896-.224-2.616-.672-.704-.464-1.24-1.104-1.608-1.92-.368-.816-.552-1.752-.552-2.808v-6.768c0-.16.048-.288.144-.384a.555.555 0 0 1 .408-.168h1.2a.48.48 0 0 1 .384.168.48.48 0 0 1 .168.384v6.648c0 2.384 1.04 3.576 3.12 3.576.992 0 1.784-.312 2.376-.936.608-.64.912-1.52.912-2.64v-6.648c0-.16.048-.288.144-.384a.555.555 0 0 1 .408-.168h1.176c.176 0 .312.056.408.168a.519.519 0 0 1 .144.384v11.376c0 .16-.048.296-.144.408-.096.096-.232.144-.408.144h-1.104a.606.606 0 0 1-.408-.144.606.606 0 0 1-.144-.408v-1.056a4.931 4.931 0 0 1-1.584 1.344c-.608.336-1.416.504-2.424.504ZM118.86 75a.606.606 0 0 1-.408-.144.606.606 0 0 1-.144-.408V58.512c0-.16.048-.288.144-.384a.555.555 0 0 1 .408-.168h1.128c.176 0 .312.056.408.168a.519.519 0 0 1 .144.384v15.936c0 .16-.048.296-.144.408-.096.096-.232.144-.408.144h-1.128Zm7.444 4.56a.46.46 0 0 1-.336-.144.46.46 0 0 1-.144-.336c0-.064.008-.128.024-.192s.048-.144.096-.24l1.848-4.392-4.584-10.824c-.08-.192-.12-.328-.12-.408a.488.488 0 0 1 .504-.504h1.176c.16 0 .288.04.384.12.096.08.16.176.192.288l3.648 8.736 3.744-8.736a.908.908 0 0 1 .192-.288c.096-.08.232-.12.408-.12h1.128c.144 0 .264.048.36.144a.46.46 0 0 1 .144.336c0 .08-.04.224-.12.432l-6.816 15.72a.76.76 0 0 1-.216.288c-.08.08-.208.12-.384.12h-1.128Zm17.812 0a.46.46 0 0 1-.336-.144.46.46 0 0 1-.144-.336c0-.064.008-.128.024-.192s.048-.144.096-.24l1.848-4.392-4.584-10.824c-.08-.192-.12-.328-.12-.408a.488.488 0 0 1 .504-.504h1.176c.16 0 .288.04.384.12.096.08.16.176.192.288l3.648 8.736 3.744-8.736a.908.908 0 0 1 .192-.288c.096-.08.232-.12.408-.12h1.128c.144 0 .264.048.36.144a.46.46 0 0 1 .144.336c0 .08-.04.224-.12.432l-6.816 15.72a.76.76 0 0 1-.216.288c-.08.08-.208.12-.384.12h-1.128Zm15.725-4.32c-1.216 0-2.232-.232-3.048-.696a4.701 4.701 0 0 1-1.872-1.92c-.432-.832-.672-1.776-.72-2.832a18.167 18.167 0 0 1-.024-1.032c0-.432.008-.776.024-1.032.048-1.072.288-2.016.72-2.832a4.862 4.862 0 0 1 1.896-1.92c.816-.464 1.824-.696 3.024-.696s2.208.232 3.024.696a4.701 4.701 0 0 1 1.872 1.92c.448.816.696 1.76.744 2.832.016.256.024.6.024 1.032 0 .416-.008.76-.024 1.032-.048 1.056-.288 2-.72 2.832a4.701 4.701 0 0 1-1.872 1.92c-.816.464-1.832.696-3.048.696Zm0-1.848c.992 0 1.784-.312 2.376-.936.592-.64.912-1.568.96-2.784.016-.24.024-.544.024-.912s-.008-.672-.024-.912c-.048-1.216-.368-2.136-.96-2.76-.592-.64-1.384-.96-2.376-.96s-1.792.32-2.4.96c-.592.624-.904 1.544-.936 2.76-.016.24-.024.544-.024.912s.008.672.024.912c.032 1.216.344 2.144.936 2.784.608.624 1.408.936 2.4.936Zm13.325 1.848c-1.024 0-1.896-.224-2.616-.672-.704-.464-1.24-1.104-1.608-1.92-.368-.816-.552-1.752-.552-2.808v-6.768c0-.16.048-.288.144-.384a.555.555 0 0 1 .408-.168h1.2a.48.48 0 0 1 .384.168.48.48 0 0 1 .168.384v6.648c0 2.384 1.04 3.576 3.12 3.576.992 0 1.784-.312 2.376-.936.608-.64.912-1.52.912-2.64v-6.648c0-.16.048-.288.144-.384a.555.555 0 0 1 .408-.168h1.176c.176 0 .312.056.408.168a.519.519 0 0 1 .144.384v11.376c0 .16-.048.296-.144.408-.096.096-.232.144-.408.144h-1.104a.606.606 0 0 1-.408-.144.606.606 0 0 1-.144-.408v-1.056a4.931 4.931 0 0 1-1.584 1.344c-.608.336-1.416.504-2.424.504ZM183.5 75a.606.606 0 0 1-.408-.144.606.606 0 0 1-.144-.408V63.096c0-.16.048-.296.144-.408a.555.555 0 0 1 .408-.168h1.104c.16 0 .296.056.408.168a.555.555 0 0 1 .168.408v1.056c.32-.544.76-.952 1.32-1.224s1.232-.408 2.016-.408h.96a.48.48 0 0 1 .384.168.519.519 0 0 1 .144.384v.984c0 .16-.048.288-.144.384a.519.519 0 0 1-.384.144h-1.44c-.864 0-1.544.256-2.04.768-.496.496-.744 1.176-.744 2.04v7.056c0 .16-.056.296-.168.408a.606.606 0 0 1-.408.144H183.5Zm12.885.24c-.896 0-1.664-.112-2.304-.336-.64-.224-1.16-.496-1.56-.816-.4-.32-.704-.64-.912-.96-.192-.32-.296-.576-.312-.768-.016-.176.04-.312.168-.408a.638.638 0 0 1 .384-.144h1.056c.096 0 .168.016.216.048.064.016.144.08.24.192.208.224.44.448.696.672.256.224.568.408.936.552.384.144.856.216 1.416.216.816 0 1.488-.152 2.016-.456.528-.32.792-.784.792-1.392 0-.4-.112-.72-.336-.96-.208-.24-.592-.456-1.152-.648-.544-.192-1.296-.392-2.256-.6-.96-.224-1.72-.496-2.28-.816-.56-.336-.96-.728-1.2-1.176a3.345 3.345 0 0 1-.36-1.56c0-.592.176-1.16.528-1.704.352-.56.864-1.016 1.536-1.368.688-.352 1.544-.528 2.568-.528.832 0 1.544.104 2.136.312.592.208 1.08.472 1.464.792.384.304.672.608.864.912.192.304.296.56.312.768a.482.482 0 0 1-.144.408.573.573 0 0 1-.384.144h-1.008a.55.55 0 0 1-.288-.072 1.802 1.802 0 0 1-.192-.168 5.113 5.113 0 0 0-.576-.624c-.208-.208-.488-.376-.84-.504-.336-.144-.784-.216-1.344-.216-.8 0-1.4.168-1.8.504-.4.336-.6.76-.6 1.272 0 .304.088.576.264.816.176.24.512.456 1.008.648s1.232.4 2.208.624c1.056.208 1.888.488 2.496.84.608.352 1.04.76 1.296 1.224.256.464.384 1 .384 1.608 0 .672-.2 1.288-.6 1.848-.384.56-.96 1.008-1.728 1.344-.752.32-1.688.48-2.808.48Z"/>
  <path stroke="#fff" stroke-miterlimit="1" stroke-width="3" d="M4 38.5h58a2.5 2.5 0 0 1 2.5 2.5v37a2.5 2.5 0 0 1-2.5 2.5H4A2.5 2.5 0 0 1 1.5 78V41A2.5 2.5 0 0 1 4 38.5Z"/>
  <path stroke="#fff" stroke-width="4" d="M2 74h61"/>
  <circle cx="33" cy="57" r="8" fill="#fff"/>
  <rect width="51" height="24" x="7.5" y="44.5" stroke="#fff" stroke-width="3" rx="10.5"/>
  <path fill="#fff" d="M4.5 23a1 1 0 0 1 1-1h1a1 1 0 0 1 1 1v8a1 1 0 0 1-1 1h-1a1 1 0 0 1-1-1v-8Zm9-6a1 1 0 0 1 1-1h1a1 1 0 0 1 1 1v14a1 1 0 0 1-1 1h-1a1 1 0 0 1-1-1V17Zm18 0a1 1 0 0 1 1-1h1a1 1 0 0 1 1 1v14a1 1 0 0 1-1 1h-1a1 1 0 0 1-1-1V17Zm9 0a1 1 0 0 1 1-1h1a1 1 0 0 1 1 1v14a1 1 0 0 1-1 1h-1a1 1 0 0 1-1-1V17Zm9-6a1 1 0 0 1 1-1h1a1 1 0 0 1 1 1v20a1 1 0 0 1-1 1h-1a1 1 0 0 1-1-1V11Zm9-6a1 1 0 0 1 1-1h1a1 1 0 0 1 1 1v26a1 1 0 0 1-1 1h-1a1 1 0 0 1-1-1V5Zm-36 6a1 1 0 0 1 1-1h1a1 1 0 0 1 1 1v20a1 1 0 0 1-1 1h-1a1 1 0 0 1-1-1V11Z"/>
  <path fill="#fff" d="M0 32a1 1 0 0 1 1-1h64a1 1 0 0 1 1 1v1a1 1 0 0 1-1 1H1a1 1 0 0 1-1-1v-1Z"/>
</svg>
