<svg xmlns="http://www.w3.org/2000/svg" width="270" height="74" fill="none" viewBox="0 0 270 74"><path fill="#5C85E6" d="M87.584 29.0012H83.232C82.6773 28.1906 82.0693 27.2732 81.408 26.2492C80.7467 25.2252 80.096 24.1692 79.456 23.0812C78.816 21.9719 78.208 20.9052 77.632 19.8812C77.0773 18.8572 76.6293 17.9399 76.288 17.1292C76.5227 16.7879 76.8427 16.4679 77.248 16.1692C77.6747 15.8706 78.208 15.7212 78.848 15.7212C79.5733 15.7212 80.16 15.8812 80.608 16.2012C81.056 16.4999 81.4827 17.0546 81.888 17.8652C82.1653 18.3772 82.4427 18.9106 82.72 19.4652C83.0187 19.9986 83.3067 20.5532 83.584 21.1292C83.8827 21.6839 84.1707 22.2386 84.448 22.7932C84.7467 23.3266 85.024 23.8386 85.28 24.3292H85.44C85.9307 23.3479 86.368 22.4412 86.752 21.6092C87.136 20.7772 87.5093 19.9346 87.872 19.0812C88.256 18.2066 88.672 17.2572 89.12 16.2332C89.44 16.0626 89.8027 15.9346 90.208 15.8492C90.6133 15.7639 90.9973 15.7212 91.36 15.7212C92.0213 15.7212 92.576 15.8919 93.024 16.2332C93.472 16.5746 93.696 17.0866 93.696 17.7692C93.696 18.0252 93.6 18.3986 93.408 18.8892C93.216 19.3799 92.8853 20.0626 92.416 20.9372C91.9467 21.7906 91.3173 22.8786 90.528 24.2012C89.76 25.5026 88.7787 27.1026 87.584 29.0012ZM82.976 27.2412H87.776V35.2092C87.5627 35.2732 87.2427 35.3266 86.816 35.3692C86.4107 35.4332 85.9947 35.4652 85.568 35.4652C84.608 35.4652 83.936 35.3052 83.552 34.9852C83.168 34.6439 82.976 34.0572 82.976 33.2252V27.2412ZM110.095 27.5612C110.095 29.2252 109.753 30.6759 109.071 31.9132C108.409 33.1292 107.471 34.0679 106.255 34.7292C105.039 35.3906 103.609 35.7212 101.967 35.7212C100.345 35.7212 98.9161 35.4012 97.6788 34.7612C96.4628 34.0999 95.5134 33.1612 94.8307 31.9452C94.1694 30.7079 93.8388 29.2466 93.8388 27.5612C93.8388 25.8759 94.1801 24.4359 94.8628 23.2412C95.5454 22.0252 96.4948 21.0866 97.7108 20.4252C98.9481 19.7426 100.367 19.4012 101.967 19.4012C103.588 19.4012 105.007 19.7426 106.223 20.4252C107.439 21.0866 108.388 22.0359 109.071 23.2732C109.753 24.4892 110.095 25.9186 110.095 27.5612ZM101.967 23.1452C100.964 23.1452 100.164 23.5292 99.5668 24.2972C98.9908 25.0652 98.7028 26.1532 98.7028 27.5612C98.7028 28.9906 98.9908 30.0892 99.5668 30.8572C100.143 31.6039 100.943 31.9772 101.967 31.9772C102.991 31.9772 103.791 31.5932 104.367 30.8252C104.943 30.0572 105.231 28.9692 105.231 27.5612C105.231 26.1746 104.943 25.0972 104.367 24.3292C103.791 23.5399 102.991 23.1452 101.967 23.1452ZM113.075 29.2572V26.9532H117.811V29.2252C117.811 30.2066 118.056 30.9106 118.547 31.3372C119.059 31.7639 119.773 31.9772 120.691 31.9772C121.267 31.9772 121.747 31.9239 122.131 31.8172C122.515 31.7106 122.803 31.6039 122.995 31.4972V26.9532H127.763V32.0732C127.763 32.5852 127.656 33.0226 127.443 33.3852C127.251 33.7479 126.931 34.0679 126.483 34.3452C125.8 34.7719 124.957 35.1026 123.955 35.3372C122.973 35.5932 121.875 35.7212 120.659 35.7212C119.144 35.7212 117.811 35.4972 116.659 35.0492C115.528 34.6012 114.643 33.9079 114.003 32.9692C113.384 32.0092 113.075 30.7719 113.075 29.2572ZM127.763 28.3932H122.995V19.9452C123.208 19.8812 123.507 19.8172 123.891 19.7532C124.275 19.6892 124.691 19.6572 125.139 19.6572C126.056 19.6572 126.717 19.8172 127.123 20.1372C127.549 20.4359 127.763 21.0226 127.763 21.8972V28.3932ZM117.811 28.3932H113.075V19.9452C113.267 19.8812 113.555 19.8172 113.939 19.7532C114.323 19.6892 114.739 19.6572 115.187 19.6572C116.104 19.6572 116.765 19.8172 117.171 20.1372C117.597 20.4359 117.811 21.0226 117.811 21.8972V28.3932ZM136.186 24.0092V28.0092H131.45V23.4332C131.45 22.8359 131.588 22.3346 131.866 21.9292C132.164 21.5026 132.57 21.1292 133.082 20.8092C133.786 20.3826 134.628 20.0519 135.61 19.8172C136.612 19.5612 137.658 19.4332 138.746 19.4332C140.922 19.4332 142.01 20.1586 142.01 21.6092C142.01 21.9506 141.956 22.2706 141.85 22.5692C141.764 22.8679 141.658 23.1239 141.53 23.3372C141.316 23.2946 141.05 23.2626 140.73 23.2412C140.431 23.1986 140.1 23.1772 139.738 23.1772C139.098 23.1772 138.458 23.2519 137.818 23.4012C137.178 23.5506 136.634 23.7532 136.186 24.0092ZM131.45 26.7932L136.186 26.8892V35.2092C135.972 35.2732 135.674 35.3266 135.29 35.3692C134.906 35.4332 134.49 35.4652 134.042 35.4652C133.146 35.4652 132.484 35.3052 132.058 34.9852C131.652 34.6652 131.45 34.0892 131.45 33.2572V26.7932Z"/><path fill="#fff" d="M149.635 27.2732H144.803V18.4412C144.803 17.6306 145.038 17.0012 145.507 16.5532C145.977 16.0839 146.606 15.8492 147.395 15.8492C147.843 15.8492 148.27 15.8812 148.675 15.9452C149.102 16.0092 149.422 16.0626 149.635 16.1052V27.2732ZM147.331 28.0092V24.1052H156.963C157.091 24.3186 157.209 24.5959 157.315 24.9372C157.422 25.2572 157.475 25.6092 157.475 25.9932C157.475 26.6759 157.315 27.1879 156.995 27.5292C156.697 27.8492 156.281 28.0092 155.747 28.0092H147.331ZM147.395 19.7532V15.8492H158.051C158.179 16.0412 158.297 16.3079 158.403 16.6492C158.51 16.9906 158.563 17.3532 158.563 17.7372C158.563 18.4199 158.403 18.9319 158.083 19.2732C157.785 19.5932 157.369 19.7532 156.835 19.7532H147.395ZM144.803 25.3852H149.667V35.2092C149.475 35.2732 149.166 35.3266 148.739 35.3692C148.313 35.4332 147.875 35.4652 147.427 35.4652C146.467 35.4652 145.785 35.2946 145.379 34.9532C144.995 34.6119 144.803 34.0252 144.803 33.1932V25.3852ZM160.884 15.4652C160.884 14.7399 161.129 14.1319 161.62 13.6412C162.132 13.1506 162.772 12.9052 163.54 12.9052C164.329 12.9052 164.969 13.1506 165.46 13.6412C165.95 14.1319 166.196 14.7399 166.196 15.4652C166.196 16.1692 165.95 16.7772 165.46 17.2892C164.969 17.8012 164.329 18.0572 163.54 18.0572C162.772 18.0572 162.132 17.8012 161.62 17.2892C161.129 16.7772 160.884 16.1692 160.884 15.4652ZM161.172 26.7932H165.908V35.2092C165.716 35.2732 165.428 35.3266 165.044 35.3692C164.66 35.4332 164.244 35.4652 163.796 35.4652C162.878 35.4652 162.206 35.3052 161.78 34.9852C161.374 34.6652 161.172 34.0892 161.172 33.2572V26.7932ZM165.908 29.2572H161.172V20.0732C161.364 20.0092 161.652 19.9452 162.036 19.8812C162.441 19.8172 162.868 19.7852 163.316 19.7852C164.233 19.7852 164.894 19.9452 165.3 20.2652C165.705 20.5639 165.908 21.1506 165.908 22.0252V29.2572ZM184.45 25.2892V28.2972H179.682V25.4492C179.682 24.6599 179.448 24.0839 178.978 23.7212C178.53 23.3372 177.933 23.1452 177.186 23.1452C176.653 23.1452 176.162 23.2199 175.714 23.3692C175.266 23.4972 174.861 23.6572 174.498 23.8492V28.2972H169.762V23.3052C169.762 22.7719 169.869 22.3346 170.082 21.9932C170.317 21.6306 170.648 21.3106 171.074 21.0332C171.757 20.5639 172.632 20.1799 173.698 19.8812C174.765 19.5612 175.938 19.4012 177.218 19.4012C179.522 19.4012 181.304 19.9132 182.562 20.9372C183.821 21.9399 184.45 23.3906 184.45 25.2892ZM169.762 26.8252H174.498V35.2092C174.285 35.2732 173.986 35.3266 173.602 35.3692C173.218 35.4332 172.802 35.4652 172.354 35.4652C171.458 35.4652 170.797 35.3052 170.37 34.9852C169.965 34.6652 169.762 34.0892 169.762 33.2572V26.8252ZM179.682 26.8252H184.45V35.2092C184.237 35.2732 183.938 35.3266 183.554 35.3692C183.17 35.4332 182.754 35.4652 182.306 35.4652C181.41 35.4652 180.749 35.3052 180.322 34.9852C179.896 34.6652 179.682 34.0892 179.682 33.2572V26.8252ZM194.473 32.2012C194.963 32.2012 195.443 32.1586 195.913 32.0732C196.403 31.9666 196.755 31.8492 196.969 31.7212V28.6492L194.281 28.9052C193.555 28.9479 192.979 29.0972 192.553 29.3532C192.126 29.6092 191.913 29.9932 191.913 30.5052C191.913 31.0172 192.115 31.4332 192.521 31.7532C192.926 32.0519 193.577 32.2012 194.473 32.2012ZM194.281 19.4012C196.499 19.4012 198.27 19.8706 199.593 20.8092C200.915 21.7266 201.577 23.1559 201.577 25.0972V32.3612C201.577 32.8946 201.438 33.3319 201.161 33.6732C200.883 33.9932 200.531 34.2706 200.105 34.5052C199.465 34.8892 198.665 35.1879 197.705 35.4012C196.766 35.6359 195.689 35.7532 194.473 35.7532C192.297 35.7532 190.558 35.3266 189.257 34.4732C187.977 33.6199 187.337 32.3506 187.337 30.6652C187.337 29.2146 187.785 28.1052 188.681 27.3372C189.577 26.5479 190.91 26.0679 192.681 25.8972L196.937 25.4492V25.0652C196.937 24.3399 196.649 23.8172 196.073 23.4972C195.518 23.1772 194.718 23.0172 193.673 23.0172C192.862 23.0172 192.062 23.1132 191.273 23.3052C190.505 23.4972 189.811 23.7212 189.193 23.9772C188.937 23.8066 188.713 23.5506 188.521 23.2092C188.35 22.8466 188.265 22.4732 188.265 22.0892C188.265 21.1932 188.755 20.5426 189.737 20.1372C190.355 19.8812 191.07 19.6999 191.881 19.5932C192.713 19.4652 193.513 19.4012 194.281 19.4012ZM219.919 25.2892V28.2972H215.151V25.4492C215.151 24.6599 214.916 24.0839 214.447 23.7212C213.999 23.3372 213.402 23.1452 212.655 23.1452C212.122 23.1452 211.631 23.2199 211.183 23.3692C210.735 23.4972 210.33 23.6572 209.967 23.8492V28.2972H205.231V23.3052C205.231 22.7719 205.338 22.3346 205.551 21.9932C205.786 21.6306 206.116 21.3106 206.543 21.0332C207.226 20.5639 208.1 20.1799 209.167 19.8812C210.234 19.5612 211.407 19.4012 212.687 19.4012C214.991 19.4012 216.772 19.9132 218.031 20.9372C219.29 21.9399 219.919 23.3906 219.919 25.2892ZM205.231 26.8252H209.967V35.2092C209.754 35.2732 209.455 35.3266 209.071 35.3692C208.687 35.4332 208.271 35.4652 207.823 35.4652C206.927 35.4652 206.266 35.3052 205.839 34.9852C205.434 34.6652 205.231 34.0892 205.231 33.2572V26.8252ZM215.151 26.8252H219.919V35.2092C219.706 35.2732 219.407 35.3266 219.023 35.3692C218.639 35.4332 218.223 35.4652 217.775 35.4652C216.879 35.4652 216.218 35.3052 215.791 34.9852C215.364 34.6652 215.151 34.0892 215.151 33.2572V26.8252ZM231.925 23.1772C230.773 23.1772 229.781 23.5612 228.949 24.3292C228.139 25.0759 227.733 26.1746 227.733 27.6252C227.733 29.0546 228.128 30.1319 228.917 30.8572C229.707 31.5826 230.699 31.9452 231.893 31.9452C232.597 31.9452 233.205 31.8599 233.717 31.6892C234.251 31.4972 234.709 31.2946 235.093 31.0812C235.456 31.3372 235.733 31.6252 235.925 31.9452C236.117 32.2439 236.213 32.6172 236.213 33.0652C236.213 33.8546 235.787 34.4946 234.933 34.9852C234.08 35.4759 232.896 35.7212 231.381 35.7212C229.696 35.7212 228.213 35.4226 226.933 34.8252C225.653 34.2066 224.661 33.2892 223.957 32.0732C223.253 30.8572 222.901 29.3746 222.901 27.6252C222.901 25.7692 223.285 24.2439 224.053 23.0492C224.821 21.8332 225.835 20.9266 227.093 20.3292C228.373 19.7106 229.76 19.4012 231.253 19.4012C232.725 19.4012 233.877 19.6679 234.709 20.2012C235.563 20.7346 235.989 21.3959 235.989 22.1852C235.989 22.5692 235.893 22.9212 235.701 23.2412C235.531 23.5399 235.328 23.8066 235.093 24.0412C234.688 23.8279 234.219 23.6359 233.685 23.4652C233.173 23.2732 232.587 23.1772 231.925 23.1772ZM240.97 29.8012L240.778 26.6012L248.714 25.3532C248.672 24.7559 248.416 24.2012 247.946 23.6892C247.477 23.1772 246.784 22.9212 245.866 22.9212C244.906 22.9212 244.106 23.2519 243.466 23.9132C242.826 24.5532 242.485 25.4706 242.442 26.6652L242.602 28.8732C242.794 30.0466 243.296 30.8892 244.106 31.4012C244.917 31.8919 245.877 32.1372 246.986 32.1372C247.882 32.1372 248.725 32.0092 249.514 31.7532C250.304 31.4972 250.944 31.2306 251.434 30.9532C251.754 31.1452 252.01 31.4119 252.202 31.7532C252.416 32.0946 252.522 32.4572 252.522 32.8412C252.522 33.4812 252.266 34.0146 251.754 34.4412C251.264 34.8679 250.57 35.1879 249.674 35.4012C248.8 35.6146 247.797 35.7212 246.666 35.7212C245.024 35.7212 243.541 35.4119 242.218 34.7932C240.917 34.1746 239.893 33.2466 239.146 32.0092C238.4 30.7719 238.026 29.2252 238.026 27.3692C238.026 26.0039 238.24 24.8199 238.666 23.8172C239.114 22.8146 239.701 21.9932 240.426 21.3532C241.173 20.6919 242.005 20.2012 242.922 19.8812C243.861 19.5612 244.832 19.4012 245.834 19.4012C247.306 19.4012 248.586 19.6999 249.674 20.2972C250.784 20.8732 251.648 21.6626 252.266 22.6652C252.885 23.6679 253.194 24.8306 253.194 26.1532C253.194 26.8146 253.013 27.3159 252.65 27.6572C252.288 27.9986 251.786 28.2119 251.146 28.2972L240.97 29.8012ZM268.585 30.7612C268.585 32.3186 267.999 33.5452 266.825 34.4412C265.652 35.3159 263.945 35.7532 261.705 35.7532C259.956 35.7532 258.516 35.4972 257.385 34.9852C256.255 34.4732 255.689 33.7159 255.689 32.7132C255.689 32.2652 255.785 31.8812 255.977 31.5612C256.169 31.2199 256.415 30.9532 256.713 30.7612C257.311 31.1026 258.004 31.4226 258.793 31.7212C259.604 31.9986 260.521 32.1372 261.545 32.1372C263.103 32.1372 263.881 31.6892 263.881 30.7932C263.881 30.4092 263.743 30.1106 263.465 29.8972C263.188 29.6626 262.729 29.4919 262.089 29.3852L260.745 29.0652C259.039 28.7026 257.759 28.1479 256.905 27.4012C256.073 26.6332 255.657 25.5879 255.657 24.2652C255.657 22.7719 256.255 21.5879 257.449 20.7132C258.665 19.8172 260.297 19.3692 262.345 19.3692C263.369 19.3692 264.297 19.4759 265.129 19.6892C265.983 19.8812 266.655 20.1906 267.145 20.6172C267.636 21.0226 267.881 21.5346 267.881 22.1532C267.881 22.5799 267.796 22.9532 267.625 23.2732C267.455 23.5932 267.231 23.8599 266.953 24.0732C266.719 23.9239 266.356 23.7639 265.865 23.5932C265.396 23.4226 264.873 23.2839 264.297 23.1772C263.743 23.0706 263.22 23.0172 262.729 23.0172C261.961 23.0172 261.364 23.1239 260.937 23.3372C260.511 23.5292 260.297 23.8386 260.297 24.2652C260.297 24.5426 260.415 24.7879 260.649 25.0012C260.905 25.1932 261.343 25.3532 261.961 25.4812L263.241 25.8012C265.14 26.2279 266.505 26.8466 267.337 27.6572C268.169 28.4466 268.585 29.4812 268.585 30.7612Z"/><path fill="#ADADAD" d="M81.26 64.2412C81.1267 64.2412 81.0133 64.2012 80.92 64.1212C80.84 64.0279 80.8 63.9146 80.8 63.7812V52.0212H76.96C76.8267 52.0212 76.7133 51.9812 76.62 51.9012C76.54 51.8079 76.5 51.6946 76.5 51.5612V50.7212C76.5 50.5746 76.54 50.4612 76.62 50.3812C76.7133 50.2879 76.8267 50.2412 76.96 50.2412H86.6C86.7467 50.2412 86.86 50.2879 86.94 50.3812C87.0333 50.4612 87.08 50.5746 87.08 50.7212V51.5612C87.08 51.6946 87.0333 51.8079 86.94 51.9012C86.86 51.9812 86.7467 52.0212 86.6 52.0212H82.78V63.7812C82.78 63.9146 82.7333 64.0279 82.64 64.1212C82.56 64.2012 82.4467 64.2412 82.3 64.2412H81.26ZM87.9009 64.2412C87.7676 64.2412 87.6543 64.2012 87.5609 64.1212C87.4809 64.0279 87.4409 63.9146 87.4409 63.7812V54.3212C87.4409 54.1879 87.4809 54.0746 87.5609 53.9812C87.6543 53.8879 87.7676 53.8412 87.9009 53.8412H88.8209C88.9543 53.8412 89.0676 53.8879 89.1609 53.9812C89.2543 54.0746 89.3009 54.1879 89.3009 54.3212V55.2012C89.5676 54.7479 89.9343 54.4079 90.4009 54.1812C90.8676 53.9546 91.4276 53.8412 92.0809 53.8412H92.8809C93.0143 53.8412 93.1209 53.8879 93.2009 53.9812C93.2809 54.0612 93.3209 54.1679 93.3209 54.3012V55.1212C93.3209 55.2546 93.2809 55.3612 93.2009 55.4412C93.1209 55.5212 93.0143 55.5612 92.8809 55.5612H91.6809C90.9609 55.5612 90.3943 55.7746 89.9809 56.2012C89.5676 56.6146 89.3609 57.1812 89.3609 57.9012V63.7812C89.3609 63.9146 89.3143 64.0279 89.2209 64.1212C89.1276 64.2012 89.0143 64.2412 88.8809 64.2412H87.9009ZM98.9186 64.4412C98.0653 64.4412 97.3386 64.2546 96.7386 63.8812C96.1519 63.4946 95.7053 62.9612 95.3986 62.2812C95.0919 61.6012 94.9386 60.8212 94.9386 59.9412V54.3012C94.9386 54.1679 94.9786 54.0612 95.0586 53.9812C95.1519 53.8879 95.2653 53.8412 95.3986 53.8412H96.3986C96.5319 53.8412 96.6386 53.8879 96.7186 53.9812C96.8119 54.0612 96.8586 54.1679 96.8586 54.3012V59.8412C96.8586 61.8279 97.7253 62.8212 99.4586 62.8212C100.285 62.8212 100.945 62.5612 101.439 62.0412C101.945 61.5079 102.199 60.7746 102.199 59.8412V54.3012C102.199 54.1679 102.239 54.0612 102.319 53.9812C102.412 53.8879 102.525 53.8412 102.659 53.8412H103.639C103.785 53.8412 103.899 53.8879 103.979 53.9812C104.059 54.0612 104.099 54.1679 104.099 54.3012V63.7812C104.099 63.9146 104.059 64.0279 103.979 64.1212C103.899 64.2012 103.785 64.2412 103.639 64.2412H102.719C102.585 64.2412 102.472 64.2012 102.379 64.1212C102.299 64.0279 102.259 63.9146 102.259 63.7812V62.9012C101.899 63.3679 101.459 63.7412 100.939 64.0212C100.432 64.3012 99.7586 64.4412 98.9186 64.4412ZM107.55 64.2412C107.417 64.2412 107.303 64.2012 107.21 64.1212C107.13 64.0279 107.09 63.9146 107.09 63.7812V50.5012C107.09 50.3679 107.13 50.2612 107.21 50.1812C107.303 50.0879 107.417 50.0412 107.55 50.0412H108.49C108.637 50.0412 108.75 50.0879 108.83 50.1812C108.91 50.2612 108.95 50.3679 108.95 50.5012V63.7812C108.95 63.9146 108.91 64.0279 108.83 64.1212C108.75 64.2012 108.637 64.2412 108.49 64.2412H107.55ZM113.753 68.0412C113.646 68.0412 113.553 68.0012 113.473 67.9212C113.393 67.8412 113.353 67.7479 113.353 67.6412C113.353 67.5879 113.36 67.5346 113.373 67.4812C113.386 67.4279 113.413 67.3612 113.453 67.2812L114.993 63.6212L111.173 54.6012C111.106 54.4412 111.073 54.3279 111.073 54.2612C111.073 54.1412 111.113 54.0412 111.193 53.9612C111.273 53.8812 111.373 53.8412 111.493 53.8412H112.473C112.606 53.8412 112.713 53.8746 112.793 53.9412C112.873 54.0079 112.926 54.0879 112.953 54.1812L115.993 61.4612L119.113 54.1812C119.153 54.0879 119.206 54.0079 119.273 53.9412C119.353 53.8746 119.466 53.8412 119.613 53.8412H120.553C120.673 53.8412 120.773 53.8812 120.853 53.9612C120.933 54.0412 120.973 54.1346 120.973 54.2412C120.973 54.3079 120.94 54.4279 120.873 54.6012L115.193 67.7012C115.153 67.7946 115.093 67.8746 115.013 67.9412C114.946 68.0079 114.84 68.0412 114.693 68.0412H113.753ZM128.597 68.0412C128.49 68.0412 128.397 68.0012 128.317 67.9212C128.237 67.8412 128.197 67.7479 128.197 67.6412C128.197 67.5879 128.204 67.5346 128.217 67.4812C128.23 67.4279 128.257 67.3612 128.297 67.2812L129.837 63.6212L126.017 54.6012C125.95 54.4412 125.917 54.3279 125.917 54.2612C125.917 54.1412 125.957 54.0412 126.037 53.9612C126.117 53.8812 126.217 53.8412 126.337 53.8412H127.317C127.45 53.8412 127.557 53.8746 127.637 53.9412C127.717 54.0079 127.77 54.0879 127.797 54.1812L130.837 61.4612L133.957 54.1812C133.997 54.0879 134.05 54.0079 134.117 53.9412C134.197 53.8746 134.31 53.8412 134.457 53.8412H135.397C135.517 53.8412 135.617 53.8812 135.697 53.9612C135.777 54.0412 135.817 54.1346 135.817 54.2412C135.817 54.3079 135.784 54.4279 135.717 54.6012L130.037 67.7012C129.997 67.7946 129.937 67.8746 129.857 67.9412C129.79 68.0079 129.684 68.0412 129.537 68.0412H128.597ZM141.701 64.4412C140.688 64.4412 139.841 64.2479 139.161 63.8612C138.481 63.4746 137.961 62.9412 137.601 62.2612C137.241 61.5679 137.041 60.7812 137.001 59.9012C136.988 59.6746 136.981 59.3879 136.981 59.0412C136.981 58.6812 136.988 58.3946 137.001 58.1812C137.041 57.2879 137.241 56.5012 137.601 55.8212C137.974 55.1412 138.501 54.6079 139.181 54.2212C139.861 53.8346 140.701 53.6412 141.701 53.6412C142.701 53.6412 143.541 53.8346 144.221 54.2212C144.901 54.6079 145.421 55.1412 145.781 55.8212C146.154 56.5012 146.361 57.2879 146.401 58.1812C146.414 58.3946 146.421 58.6812 146.421 59.0412C146.421 59.3879 146.414 59.6746 146.401 59.9012C146.361 60.7812 146.161 61.5679 145.801 62.2612C145.441 62.9412 144.921 63.4746 144.241 63.8612C143.561 64.2479 142.714 64.4412 141.701 64.4412ZM141.701 62.9012C142.528 62.9012 143.188 62.6412 143.681 62.1212C144.174 61.5879 144.441 60.8146 144.481 59.8012C144.494 59.6012 144.501 59.3479 144.501 59.0412C144.501 58.7346 144.494 58.4812 144.481 58.2812C144.441 57.2679 144.174 56.5012 143.681 55.9812C143.188 55.4479 142.528 55.1812 141.701 55.1812C140.874 55.1812 140.208 55.4479 139.701 55.9812C139.208 56.5012 138.948 57.2679 138.921 58.2812C138.908 58.4812 138.901 58.7346 138.901 59.0412C138.901 59.3479 138.908 59.6012 138.921 59.8012C138.948 60.8146 139.208 61.5879 139.701 62.1212C140.208 62.6412 140.874 62.9012 141.701 62.9012ZM152.805 64.4412C151.952 64.4412 151.225 64.2546 150.625 63.8812C150.039 63.4946 149.592 62.9612 149.285 62.2812C148.979 61.6012 148.825 60.8212 148.825 59.9412V54.3012C148.825 54.1679 148.865 54.0612 148.945 53.9812C149.039 53.8879 149.152 53.8412 149.285 53.8412H150.285C150.419 53.8412 150.525 53.8879 150.605 53.9812C150.699 54.0612 150.745 54.1679 150.745 54.3012V59.8412C150.745 61.8279 151.612 62.8212 153.345 62.8212C154.172 62.8212 154.832 62.5612 155.325 62.0412C155.832 61.5079 156.085 60.7746 156.085 59.8412V54.3012C156.085 54.1679 156.125 54.0612 156.205 53.9812C156.299 53.8879 156.412 53.8412 156.545 53.8412H157.525C157.672 53.8412 157.785 53.8879 157.865 53.9812C157.945 54.0612 157.985 54.1679 157.985 54.3012V63.7812C157.985 63.9146 157.945 64.0279 157.865 64.1212C157.785 64.2012 157.672 64.2412 157.525 64.2412H156.605C156.472 64.2412 156.359 64.2012 156.265 64.1212C156.185 64.0279 156.145 63.9146 156.145 63.7812V62.9012C155.785 63.3679 155.345 63.7412 154.825 64.0212C154.319 64.3012 153.645 64.4412 152.805 64.4412ZM161.417 64.2412C161.283 64.2412 161.17 64.2012 161.077 64.1212C160.997 64.0279 160.957 63.9146 160.957 63.7812V54.3212C160.957 54.1879 160.997 54.0746 161.077 53.9812C161.17 53.8879 161.283 53.8412 161.417 53.8412H162.337C162.47 53.8412 162.583 53.8879 162.677 53.9812C162.77 54.0746 162.817 54.1879 162.817 54.3212V55.2012C163.083 54.7479 163.45 54.4079 163.917 54.1812C164.383 53.9546 164.943 53.8412 165.597 53.8412H166.397C166.53 53.8412 166.637 53.8879 166.717 53.9812C166.797 54.0612 166.837 54.1679 166.837 54.3012V55.1212C166.837 55.2546 166.797 55.3612 166.717 55.4412C166.637 55.5212 166.53 55.5612 166.397 55.5612H165.197C164.477 55.5612 163.91 55.7746 163.497 56.2012C163.083 56.6146 162.877 57.1812 162.877 57.9012V63.7812C162.877 63.9146 162.83 64.0279 162.737 64.1212C162.643 64.2012 162.53 64.2412 162.397 64.2412H161.417ZM172.154 64.4412C171.408 64.4412 170.768 64.3479 170.234 64.1612C169.701 63.9746 169.268 63.7479 168.934 63.4812C168.601 63.2146 168.348 62.9479 168.174 62.6812C168.014 62.4146 167.928 62.2012 167.914 62.0412C167.901 61.8946 167.948 61.7812 168.054 61.7012C168.161 61.6212 168.268 61.5812 168.374 61.5812H169.254C169.334 61.5812 169.394 61.5946 169.434 61.6212C169.488 61.6346 169.554 61.6879 169.634 61.7812C169.808 61.9679 170.001 62.1546 170.214 62.3412C170.428 62.5279 170.688 62.6812 170.994 62.8012C171.314 62.9212 171.708 62.9812 172.174 62.9812C172.854 62.9812 173.414 62.8546 173.854 62.6012C174.294 62.3346 174.514 61.9479 174.514 61.4412C174.514 61.1079 174.421 60.8412 174.234 60.6412C174.061 60.4412 173.741 60.2612 173.274 60.1012C172.821 59.9412 172.194 59.7746 171.394 59.6012C170.594 59.4146 169.961 59.1879 169.494 58.9212C169.028 58.6412 168.694 58.3146 168.494 57.9412C168.294 57.5546 168.194 57.1212 168.194 56.6412C168.194 56.1479 168.341 55.6746 168.634 55.2212C168.928 54.7546 169.354 54.3746 169.914 54.0812C170.488 53.7879 171.201 53.6412 172.054 53.6412C172.748 53.6412 173.341 53.7279 173.834 53.9012C174.328 54.0746 174.734 54.2946 175.054 54.5612C175.374 54.8146 175.614 55.0679 175.774 55.3212C175.934 55.5746 176.021 55.7879 176.034 55.9612C176.048 56.0946 176.008 56.2079 175.914 56.3012C175.821 56.3812 175.714 56.4212 175.594 56.4212H174.754C174.661 56.4212 174.581 56.4012 174.514 56.3612C174.461 56.3212 174.408 56.2746 174.354 56.2212C174.221 56.0479 174.061 55.8746 173.874 55.7012C173.701 55.5279 173.468 55.3879 173.174 55.2812C172.894 55.1612 172.521 55.1012 172.054 55.1012C171.388 55.1012 170.888 55.2412 170.554 55.5212C170.221 55.8012 170.054 56.1546 170.054 56.5812C170.054 56.8346 170.128 57.0612 170.274 57.2612C170.421 57.4612 170.701 57.6412 171.114 57.8012C171.528 57.9612 172.141 58.1346 172.954 58.3212C173.834 58.4946 174.528 58.7279 175.034 59.0212C175.541 59.3146 175.901 59.6546 176.114 60.0412C176.328 60.4279 176.434 60.8746 176.434 61.3812C176.434 61.9412 176.268 62.4546 175.934 62.9212C175.614 63.3879 175.134 63.7612 174.494 64.0412C173.868 64.3079 173.088 64.4412 172.154 64.4412Z"/><path stroke="#fff" stroke-miterlimit="1" stroke-width="3" d="M1.5 34.7695C1.5 33.522 2.51133 32.5107 3.75887 32.5107H58.2624C59.51 32.5107 60.5213 33.522 60.5213 34.7695V69.539C60.5213 70.7866 59.51 71.7979 58.2624 71.7979H3.75887C2.51133 71.7979 1.5 70.7866 1.5 69.539V34.7695Z"/><line x1="1.88" x2="59.202" y1="65.66" y2="65.66" stroke="#fff" stroke-width="4"/><circle cx="31.011" cy="49.805" r="7.518" fill="#fff"/><rect width="47.745" height="22.372" x="7.138" y="38.149" stroke="#fff" stroke-width="3" rx="10.5"/><path fill="#fff" d="M4.22872 17.8546C4.22872 17.3356 4.64945 16.9149 5.16844 16.9149H6.10816C6.62715 16.9149 7.04787 17.3356 7.04787 17.8546V25.3723C7.04787 25.8913 6.62715 26.3121 6.10816 26.3121H5.16844C4.64945 26.3121 4.22872 25.8913 4.22872 25.3723V17.8546Z"/><path fill="#fff" d="M12.6862 12.2163C12.6862 11.6973 13.1069 11.2766 13.6259 11.2766H14.5656C15.0846 11.2766 15.5053 11.6973 15.5053 12.2163V25.3723C15.5053 25.8913 15.0846 26.3121 14.5656 26.3121H13.6259C13.1069 26.3121 12.6862 25.8913 12.6862 25.3723V12.2163Z"/><path fill="#fff" d="M29.6011 12.2163C29.6011 11.6973 30.0218 11.2766 30.5408 11.2766H31.4805C31.9995 11.2766 32.4202 11.6973 32.4202 12.2163V25.3723C32.4202 25.8913 31.9995 26.3121 31.4805 26.3121H30.5408C30.0218 26.3121 29.6011 25.8913 29.6011 25.3723V12.2163Z"/><path fill="#fff" d="M38.0585 12.2163C38.0585 11.6973 38.4792 11.2766 38.9982 11.2766H39.938C40.4569 11.2766 40.8777 11.6973 40.8777 12.2163V25.3723C40.8777 25.8913 40.4569 26.3121 39.938 26.3121H38.9982C38.4792 26.3121 38.0585 25.8913 38.0585 25.3723V12.2163Z"/><path fill="#fff" d="M46.516 6.57802C46.516 6.05903 46.9367 5.6383 47.4557 5.6383H48.3954C48.9144 5.6383 49.3351 6.05903 49.3351 6.57802V25.3723C49.3351 25.8913 48.9144 26.3121 48.3954 26.3121H47.4557C46.9367 26.3121 46.516 25.8913 46.516 25.3723V6.57802Z"/><path fill="#fff" d="M54.9734 0.939716C54.9734 0.420725 55.3941 0 55.9131 0H56.8529C57.3718 0 57.7926 0.420725 57.7926 0.939717V25.3723C57.7926 25.8913 57.3718 26.3121 56.8529 26.3121H55.9131C55.3941 26.3121 54.9734 25.8913 54.9734 25.3723V0.939716Z"/><path fill="#fff" d="M21.1436 6.57802C21.1436 6.05903 21.5644 5.6383 22.0833 5.6383H23.0231C23.542 5.6383 23.9628 6.05903 23.9628 6.57802V25.3723C23.9628 25.8913 23.542 26.3121 23.0231 26.3121H22.0833C21.5644 26.3121 21.1436 25.8913 21.1436 25.3723V6.57802Z"/><path fill="#fff" d="M0 26.3121C0 25.7931 0.420725 25.3723 0.939717 25.3723H61.0816C61.6006 25.3723 62.0213 25.7931 62.0213 26.3121V27.2518C62.0213 27.7708 61.6006 28.1915 61.0816 28.1915H0.939716C0.420725 28.1915 0 27.7708 0 27.2518V26.3121Z"/></svg>