<svg width="18" height="18" viewBox="0 0 18 18" fill="none" xmlns="http://www.w3.org/2000/svg">
<path d="M12.1622 10.75C12.1622 10.5511 12.239 10.3603 12.3759 10.2197C12.5127 10.079 12.6984 10 12.8919 10H14.8378C15.0314 10 15.217 10.079 15.3538 10.2197C15.4907 10.3603 15.5676 10.5511 15.5676 10.75C15.5676 10.9489 15.4907 11.1397 15.3538 11.2803C15.217 11.421 15.0314 11.5 14.8378 11.5H12.8919C12.6984 11.5 12.5127 11.421 12.3759 11.2803C12.239 11.1397 12.1622 10.9489 12.1622 10.75ZM0 2H0.0136216C0.0734527 1.44999 0.328418 0.941936 0.729771 0.572972C1.13112 0.204007 1.65071 1.67206e-05 2.18919 0H13.3784C13.6659 0 13.9505 0.058198 14.2161 0.171271C14.4818 0.284344 14.7231 0.450078 14.9264 0.65901C15.1297 0.867942 15.2909 1.11598 15.4009 1.38896C15.5109 1.66194 15.5676 1.95453 15.5676 2.25V3.087C16.2602 3.25601 16.877 3.66019 17.3185 4.23417C17.7599 4.80815 18 5.51838 18 6.25V14.75C18 15.612 17.6668 16.4386 17.0738 17.0481C16.4808 17.6576 15.6765 18 14.8378 18H3.16216C2.3235 18 1.5192 17.6576 0.926176 17.0481C0.333155 16.4386 0 15.612 0 14.75V2ZM14.8378 4.5H1.45946V14.75C1.45946 15.716 2.22227 16.5 3.16216 16.5H14.8378C15.2894 16.5 15.7225 16.3156 16.0418 15.9874C16.3611 15.6592 16.5405 15.2141 16.5405 14.75V6.25C16.5405 5.78587 16.3611 5.34075 16.0418 5.01256C15.7225 4.68437 15.2894 4.5 14.8378 4.5V4.5ZM14.1081 3V2.25C14.1081 2.05109 14.0312 1.86032 13.8944 1.71967C13.7575 1.57902 13.5719 1.5 13.3784 1.5H2.18919C1.99565 1.5 1.81004 1.57902 1.67319 1.71967C1.53634 1.86032 1.45946 2.05109 1.45946 2.25C1.45946 2.44891 1.53634 2.63968 1.67319 2.78033C1.81004 2.92098 1.99565 3 2.18919 3H14.1081Z" fill="#F3F3F3"/>
</svg>
